<?xml version="1.0" encoding="UTF-8"?><svg id="Layer_1" xmlns="http://www.w3.org/2000/svg" viewBox="0 0 266.74 39.34"><defs><style>.cls-1{fill:#fff;stroke-width:0px;}</style></defs><path class="cls-1" d="M10.8,33.75C-3,31.38-2.3,10.96,5.77,3.39c1.25-1.09,3.13-1.5,4.71-2.21,1.45-.39,2.86-1.65,4.27-1.01,1.91,1.88,4.67,4.12,6.6,5.64.76.55,1.66,1.48,2.51,1.42,2.02-.25.32,1.29-.47,1.9-1.26,1.02-2.17,1.76-3.1,2.86-.32.31-.57.47-.96.32-1.17-.66-2.72-1.95-3.91-2.69-1.7-.75-.96,1.18-.27,1.92,1.1,1.25,1.79,2.86,1.31,4.56-.34,1.06-1.54,1.95-1.36,3.16.03.34.19.75.24,1.07,0,.96-2.39.13-2.68-.35-1.45-1.56-1.54-3.94-.5-5.78.29-.63.7-1.1.8-1.78.12-.79-.34-1.66-.62-2.33-.24-.66-.77-1.31-.19-1.85,1.15-.87,4.31-2.73,2.68-4.51-3.28-1.56-5.53,9.75-5.36,12.31-.15,4.45.36,9.4,3.21,12.86,1.46,1.6,3.4,3.5,5.75,2.39,1.57-.76,1.47-2.78.37-3.85-.47-.64-1.54-.6-1.81-1.24-.01-.33.17-.59.4-.83.79-.72,2.14-1.66,2.8-2.47.33-.3.63-.92,1.06-.97.34.08-.02,1.88.12,2.66.06.53.2,1.01.48,1.52.38.76,1.03,1.23,1.08,1.71-.07,1.14-.98,2.28-1.68,3.17-2.46,3.01-6.59,3.54-10.27,2.74l-.18-.03Z"/><path class="cls-1" d="M31.22,39c1.1-.99,2.45-1.94,3-3.36.61-1.7.85-3.43.97-5.14.13-2.18.1-4.59.1-6.76-.02-2.82.1-6.38-1.48-8.95-.56-.76-2.1,1.19-2.67,1.59-.51.44-.51,1.1-.51,1.72-.01,1.85,0,3.59.07,5.48.22,1.61-.32,3.59.78,4.86.17.24.29.51.2.81-.46,1.16-1.49,1.99-2.32,2.97-.37.41-.78.79-1.35.77-1.18-.1-1.89-1.25-2.67-2.08-.48-.6-.93-1.22-1.1-1.77-.3-.87.94-1.04,1.29-1.58.49-.9.1-3.15.22-6.29,0-6.47-.03-14.42.06-19.26,0-.18.23.06.68.62.39.48.81,1.02,1.17,1.5.49.57.32,1.35.08,1.98-.07.24-.09.4.1.21,1.12-1,1.78-3.13,3.03-3.81.82-.21.68.31.48,1.15-.05.29-.1.66-.15,1.05-.27,3.01-.58,6.4-.41,9.68.26.28.79-.51,1.18-.77,2.85-2.62,2.98-3.25,5.51.05,1.21,1.32,2.2,2.74,2.77,4.51.67,3.36.32,7.39.37,10.91-.03,1.07-.1,2.34-.46,3.46-.56,1.62-2.41,3.95-4.2,5-1.18.58-2.8,1.15-4.17,1.53-.41.1-.68.12-.58-.01l.05-.06Z"/><path class="cls-1" d="M51.2,11.3c.8.38,1.65,2.11,2.45,2.84.55.88,2.16,1.61,1.73,2.76-.58,1.07-1,2.46-2.03,3.15-1.32.46-3.75,1.39-4.99,2.19-.82.99-.16,2.69-.25,3.82.05.28.12.56.28.81.51.72,1.51,1.39,2.1,1.83.43.33.91.31,1.57.01.68-.31,1.34-.69,2.02-.95.38-.13.65-.11.71.09-.06,1.42-2.46,2.95-3.48,4.15-.38.39-.68.89-1.26.96-2.21-.28-3.9-1.98-5.69-3.22-.75-.59-1.53-1.21-1.78-2.16-.5-2.84-.35-6.07-.44-8.81-.02-.27-.04-.61-.15-.84-.14-.34-.58-.53-.77-.75-.17-.2-.02-.36.19-.5.64-.32,1.52-.69,2.12-1.07,2.26-1.17,5.14-3.4,7.56-4.32h.12ZM48.51,15.51c-.38.16-.49.54-.47,1-.05,1.47-.07,3.17-.05,4.57.02.04.05.13.07.18,1.02-.39,2.02-.86,3.04-1.31.55-.25.55-.2.06-.55-1.2-.98-1.96-2.55-2.62-3.9h-.03Z"/><path class="cls-1" d="M60.57,32.9c-1.82-1.33-3.46-3.55-5.84-3.84-.27-.03-.66-.03-.55-.37.24-.67,1.34-1.62,1.9-2.21.88-.98,2.09-1.57,3.37-.63,1.24.74,2.1,2.31,2.82,3.45.15.22.3.35.45.34.76-.38,1.14-1.57,1.75-2.37.08-.15.26-.41.22-.56-.25-.34-.87-.19-1.29-.44-2.03-.94-4.16-2.55-5.76-4.1-.52-.46-.87-1.11-.82-1.81.06-1.12.27-2.17.44-3.48.21-1.58.17-2.95,1.7-3.8.27-.16.83-.65,1.08-.86.94-1,2.11-.04,3.1.5,1.56.84,3.18,1.93,5.04,1.69.75-.08,1.37-.44,1.91-.95.19-.16.73-.57.77-.19-.33,1.46-.84,3.56-1.56,4.93-2.33,3.58-6.36-.57-8.95-1.68-.4-.23-.88-.36-1.01.25-.05.44-.43,1.2-.07,1.45.77,0,1.33.45,1.92.82,1.08.61,2.92,1.44,4.17,2.01,1.44.68,2.57,1.07,4.07,1.54.29.12.63.29.68.59-.08.75-.93,1.76-1.33,2.49-.95,1.47-1.91,3.05-2.75,4.39-1.04,1.88-2.87,4.32-5.32,2.93l-.13-.08Z"/><path class="cls-1" d="M80.05,12.54c1,.33,1.71,1.51,2.54,2.22,1.89,1.9,3.54,2.99,4.86,3.39.4.18.31.37,0,.7-.88.82-1.59,2.07-1.63,3.32-.09,2.51,0,5.16.42,7.58.24.38.6-.03.94-.22.42-.27,1.21-.58,1.58-.3.16.54-1.01.95-1.46,1.44-.96.65-2.08,2.03-3.23,2.55-.8.06-1.26-.81-1.95-1.36-.54-.48-.82-1.07-.9-1.74-.24-.85-.88.05-1.46.42-.75.56-1.49,1.16-2.14,1.62-.73.44-1.21,1-1.92.93-.85-.27-1.71-1.37-2.42-2.02-2.27-1.89-2.02-4.65-1.94-7.27.04-2.38.08-4.77.17-6.93,0-.8.32-1.38,1.06-1.61,2.28-.8,5-2.08,7.35-2.73h.13ZM77.05,14.99c-.51.84-.24,2.66-.43,3.66-.07,2.43-.11,5.03-.16,7.48-.08.84.27,1.23.61,1.94.42.66.83,1.47,1.47,1.82.46-.06,1.04-.82,1.49-1.08.3-.3,1.11-.69,1.15-1.13-.06-2.36.16-5.47-.16-7.79-.51-.58-1.37-1.15-1.86-1.92-.79-.9-1.36-2.21-2.02-2.99h-.08Z"/><path class="cls-1" d="M89.43,12.24c1.52,1.54,4.51.13,5.79,1.96.81,1.81.41,1.75,2.23.45,1.01-.62,1.95-1.65,3.11-1.99,1.04.08,2.61.76,3.08,1.56.44,1.3.23,3.27.34,4.65.06,2.98.21,5.95.15,8.85-.01.89-.76,1.46-1.37,1.98-1.27,1.03-2.63,2.36-3.86,3.31-.92.89-1.69.46-2.56-.15-.26-.13-.72-.52-.93-.16-.47,1.61-.86,3.69-1.6,5.31-.27.7-.87,2.17-1.44.72-.85-2.43-1.11-5.04-1.38-7.59-.05-.34-.11-.68-.32-.94-.6-.49-1.12-.87-1.38-1.67-.38-.98-1.43-1.42-2.36-1.78-.94-.46.07-.94.75-1.16,3.49-.78,2.92,1,2.99-3.24-.05-1.68.14-4.07-.26-5.74-.33-1.08-1.37-1.89-1.39-3.09-.05-.6.12-1.23.34-1.27h.07ZM98.59,15.65c-.33.06-.89.56-1.24.76-.53.41-1.47.89-1.81,1.35-.18.53.01.89-.02,1.56.04,1.25.06,2.58.07,3.83.09,1.06-.15,2.89.18,3.37.88.83,1.93,1.7,2.71,2.62.65.66.95,1.5,1.82.48.2-.2.49-.33.6-.58.02-.12-.36-.19-.68-.32-.75-.31-.75-.58-.89-1.38-.5-3.71.12-7.94-.67-11.65l-.06-.05Z"/><path class="cls-1" d="M114.47,11.3c.8.38,1.65,2.11,2.45,2.84.55.88,2.16,1.61,1.73,2.76-.58,1.07-1,2.46-2.03,3.15-1.32.46-3.75,1.39-4.99,2.19-.82.99-.16,2.69-.25,3.82.05.28.12.56.28.81.51.72,1.51,1.39,2.1,1.83.43.33.91.31,1.57.01.68-.31,1.34-.69,2.02-.95.38-.13.65-.11.71.09-.06,1.42-2.46,2.95-3.48,4.15-.38.39-.68.89-1.26.96-2.21-.28-3.9-1.98-5.69-3.22-.75-.59-1.53-1.21-1.78-2.16-.5-2.84-.35-6.07-.44-8.81-.02-.27-.04-.61-.15-.84-.14-.34-.58-.53-.77-.75-.17-.2-.02-.36.19-.5.64-.32,1.52-.69,2.12-1.07,2.26-1.17,5.14-3.4,7.56-4.32h.12ZM111.77,15.51c-.38.16-.49.54-.47,1-.05,1.47-.07,3.17-.05,4.57.02.04.05.13.07.18,1.02-.39,2.02-.86,3.04-1.31.55-.25.55-.2.06-.55-1.2-.98-1.96-2.55-2.62-3.9h-.03Z"/><path class="cls-1" d="M128.11,12.54c1,.33,1.71,1.51,2.54,2.22,1.89,1.9,3.54,2.99,4.85,3.39.4.18.32.37,0,.7-.88.82-1.59,2.07-1.63,3.32-.09,2.51,0,5.16.42,7.58.24.38.6-.03.94-.22.42-.27,1.21-.58,1.58-.3.16.54-1.01.95-1.46,1.44-.96.65-2.08,2.03-3.23,2.55-.8.06-1.26-.81-1.95-1.36-.54-.48-.82-1.07-.9-1.74-.24-.85-.88.05-1.46.42-.75.56-1.49,1.16-2.14,1.62-.73.44-1.21,1-1.92.93-.85-.27-1.71-1.37-2.42-2.02-2.27-1.89-2.02-4.65-1.94-7.27.04-2.38.08-4.77.17-6.93,0-.8.32-1.38,1.06-1.61,2.28-.8,5-2.08,7.35-2.73h.13ZM125.11,14.99c-.51.84-.24,2.66-.43,3.66-.07,2.43-.11,5.03-.16,7.48-.08.84.27,1.23.61,1.94.42.66.83,1.47,1.47,1.82.46-.06,1.04-.82,1.49-1.08.3-.3,1.11-.69,1.15-1.13-.06-2.36.16-5.47-.16-7.79-.51-.58-1.37-1.15-1.86-1.92-.79-.9-1.36-2.21-2.02-2.99h-.08Z"/><path class="cls-1" d="M136.78.32c.73.27,1.32,1.16,1.81,1.78.49.9,1.3,1.31,1.08,2.4-.07.44-.38,1.19-.27,1.58.92-1.21,1.56-3.32,3.08-4.15.28-.18.58-.36.87-.27.51.46-.08,1.38-.07,2.15-.4,3.57-.76,7.62-.84,11.14.05.27.32.12.73-.18,1.3-.79,2.61-2.47,4.18-2.34,2.05,1.43,3.92,5.95,5.53,8.48.54.9-.84,1.9-1.54,2.37-1.05.43-3.19-.06-4.11.12-.2.1-.19.24-.05.48,1.45,1.73,2.45,3.59,4.36,5.17.48.38.84.57,1.49.46.49-.08,1.11-.27,1.64-.38.33-.07.46-.03.43.11-1.88,3.02-5.49,4.49-8.25,1.53-1.59-1.47-2.48-4.08-3.72-5.77-.33,0-.16.72-.14,1.08.07.97.61,1.89.93,2.71.08.3,0,.58-.16.85-.8,1.22-2.07,2.15-3.26,3.17-.28.2-.65.49-.98.31-.49-.34-1.39-1.43-2.33-2.32-.37-.39-.81-.78-.95-1.3-.2-1.41,1.48-2.21,1.25-3.53-.02-4.91,0-12.25-.19-16.52-.08-2.91-.55-5.93-.68-8.33,0-.27-.06-.65.12-.79h.07ZM145.06,15.33c-.64.29-1.76,1.04-2.3,1.55-.27.5-.1,1.29-.1,1.92.12.63-.04,1.78.32,2.24,1.57.19,3.95.1,5.58.25.34-.05.15-.2-.02-.44-.99-1.34-2.41-3.97-3.4-5.49l-.08-.03Z"/><path class="cls-1" d="M163.28,11.3c.8.38,1.65,2.11,2.45,2.84.55.88,2.16,1.61,1.73,2.76-.58,1.07-1,2.46-2.03,3.15-1.32.46-3.75,1.39-4.99,2.19-.82.99-.16,2.69-.25,3.82.05.28.12.56.28.81.51.72,1.51,1.39,2.1,1.83.43.33.91.31,1.57.01.68-.31,1.34-.69,2.02-.95.38-.13.65-.11.71.09-.06,1.42-2.46,2.95-3.48,4.15-.38.39-.68.89-1.26.96-2.21-.28-3.9-1.98-5.69-3.22-.75-.59-1.53-1.21-1.78-2.16-.5-2.84-.35-6.07-.44-8.81-.02-.27-.04-.61-.15-.84-.14-.34-.58-.53-.77-.75-.17-.2-.02-.36.19-.5.64-.32,1.52-.69,2.12-1.07,2.26-1.17,5.14-3.4,7.56-4.32h.12ZM160.59,15.51c-.38.16-.49.54-.47,1-.05,1.47-.07,3.17-.05,4.57.02.04.05.13.07.18,1.02-.39,2.02-.86,3.04-1.31.55-.25.55-.2.06-.55-1.2-.98-1.96-2.55-2.62-3.9h-.03Z"/><path class="cls-1" d="M182.19,13.95c.06-.14.65-.33.76-.66.64-1.76-1.07-3.79-1.54-5.43-.76-2.95,1.53-5.44,4.07-6.49,4.96-2.47,11.16.47,16.07.79,1.43.21,3.63.59,4.37-.98.43-.8.59.86.44,1.31-.44,2.53-2.37,5.04-4.78,6.02-2.61.92-4.26-.39-7.01-1.48-1.6-.73-3.88-1.62-5.44-1.7-2.89-.07-4.93,1.91-4.19,4.95.14,1.21.1,2.32-.8,3.08-.46.44-1.36.9-1.95.63v-.04ZM194.47,32.97c-2.6-1.8-4.82-4.07-7.26-6.16-.4-.35-.74-.87-1.29-.92-.45-.03-1.05.37-1.15.89-.1.51.14,1.2.66,1.12.57-.21,1.21-.66,1.82-.11.97.69.47,2.19-.3,2.76-.74.84-1.9.39-2.77-.15-2.73-1.74-1.42-6.66,1.27-7.73,3.45-1.3,9.09,7.12,12.23,8.06.69.18.93-.43,1.33-1.1.36-.58.83-1.31,1.27-1.82.38-.44.93-.8,1.11-.68.09.06.07.23-.02.47-.76,1.67-1.73,3.5-2.42,4.98-.71,1.87-2.95,1.28-4.37.45l-.13-.07ZM194.75,28.2c-1.53-1.64-2.84-3.71-4.67-5.09-.68-.62-1.17-.9-1.51-1.56-.1-.35.54-.13,1.13-.04,1.21.15,1.9-1.54,1.55-2.46-.85-2.14-3.41-4.1-4.1-6.36-.68-2.32.57-5.19,2.94-5.94,1.11-.35,2.07.19,3.06.6.94.41,1.86.86,2.64,1.43.88.75,2.07,1.4,2.56,2.47.11.39.06.95.09,1.39.04.63.12,1.07-.31,1.29-.33.19-.77.32-.94.66-.22.37-.05,1-.05,1.43-.19,1.09-1.64-.12-1.8-.71-.7-1.46.48-2.85.65-4.06.06-.61-.64-1.47-1.33-1.44-1.08.09-1.51,1.42-1.4,2.38.19,2.24,1.13,4.22,2.52,5.6,1.18,1.31,2.54,2.38,3.27,3.82,1.06,1.73.13,3.45-.6,5.08-.57,1.49-2.12,2.98-3.57,1.62l-.12-.11Z"/><path class="cls-1" d="M205.37,32.4c-.63-.6-1.91-1.54-2.29-2.31-.21-.58.72-.82.99-1.39.28-.53.17-1.21.14-1.86-.07-1.28-.07-2.78-.09-4.14-.17-2.67.29-5.67-.13-8.18-.56-1.32,1.27-2.39,2.55-2.22,1.69.17,2.44,1.74,3.11,3.04.26.55-.32.86-.56,1.19-.17,2.31.08,5.28.03,7.72.01,1.12.02,3.03.04,3.76,0,.46.22.7.68,1.04,1.53.93-.16,1.77-.72,2.67-.78,1.26-2.42,2.03-3.61.79l-.14-.12ZM205.68,11.32c-.43-.28-1.31-.86-1.69-1.17-.22-.16-.55-.47-.5-.74.19-.54.83-1.36,1.14-2,.35-.61.68-1.36,1-1.88.3-.26.64.1,1.06.35.63.48,1.23,1.01,1.93,1.48.33.28.73.43.75.81,0,.12-.16.36-.26.49-.57.69-1,1.31-1.56,2.07-.53.71-.93,1.4-1.77.66l-.1-.07Z"/><path class="cls-1" d="M223.13,32.88c-.97-.96-2.84-2.21-2.55-3.64.18-.38.63-.63.77-1.11.15-.43.14-.92.17-1.38.1-3.48.15-7.2.05-10.66,0-1.07-.64-.77-1.21-.37-.81.61-2.09.99-2.15,2.07-.07,3.03-.11,6.04-.24,9.11,0,.4-.03.88.1,1.25.18.59.98.83,1.02,1.35-.35,1.76-3.37,4.66-5.08,3.5-.94-.69-1.92-1.71-2.6-2.72-.18-.31-.42-.74-.13-1.05.32-.31.9-.5.98-1.11.1-.62.07-.99.11-1.47.07-2.95.41-5.98.06-8.77-.11-.81-1.11-.4-1.75-.82-.9-1.05,2-2.57,2.72-3.12,1.04-.62,2.29-1.59,3.5-.81.78.32,1.38,1.34,2.25,1.34,1.65-.49,3.24-2.48,5.09-1.98,1.3.3,1.96,1.81,3.14,2.23.81.11,1.7-.65,2.42-.96,1.6-.92,3.16-1.23,4.56.09.87.73,2.42,1.63,3,2.79.06.19-.02.34-.2.44-.36.21-.99.2-1.21.65-.31.62-.29,1.43-.31,2.12.02,1.78.08,3.94.06,5.73.1.81-.27,2.08.35,2.63.21.13.52.2.74.33,1.28.91-1.79,3.24-2.35,4.05-.53.55-1.27,1.11-2,.69-1.25-.83-2.83-2.33-3.19-3.75-.2-.93,1-.87,1.23-1.47.19-.9.12-1.94.17-2.88.05-2.85-.19-6.12-.36-8.9,0-.64-.33-1.09-.99-.73-1.42.75-2.4,1.62-2.17,2.92,0,2.97-.1,6.63-.06,9.13,0,.39.04.82.31,1.08.3.29.75.63.66,1.11-.11.57-.59,1.07-.96,1.52-1.24,1.39-2.43,2.91-3.83,1.66l-.14-.11Z"/><path class="cls-1" d="M247.07,11.3c.8.38,1.65,2.11,2.45,2.84.55.88,2.16,1.61,1.73,2.76-.58,1.07-1,2.46-2.03,3.15-1.32.46-3.75,1.39-4.99,2.19-.82.99-.16,2.69-.25,3.82.05.28.12.56.28.81.51.72,1.51,1.39,2.1,1.83.43.33.91.31,1.57.01.68-.31,1.34-.69,2.02-.95.38-.13.65-.11.71.09-.06,1.42-2.46,2.95-3.48,4.15-.38.39-.68.89-1.26.96-2.21-.28-3.9-1.98-5.69-3.22-.75-.59-1.53-1.21-1.78-2.16-.5-2.84-.35-6.07-.44-8.81-.02-.27-.04-.61-.15-.84-.14-.34-.58-.53-.77-.75-.17-.2-.02-.36.19-.5.64-.32,1.52-.69,2.12-1.07,2.26-1.17,5.14-3.4,7.56-4.32h.12ZM244.37,15.51c-.38.16-.49.54-.47,1-.05,1.47-.07,3.17-.05,4.57.02.04.05.13.07.18,1.02-.39,2.02-.86,3.04-1.31.55-.25.55-.2.06-.55-1.2-.98-1.96-2.55-2.62-3.9h-.03Z"/><path class="cls-1" d="M256.44,32.9c-1.82-1.33-3.46-3.55-5.84-3.84-.27-.03-.66-.03-.55-.37.24-.67,1.34-1.62,1.9-2.21.88-.98,2.09-1.56,3.37-.63,1.24.74,2.1,2.31,2.82,3.45.15.22.3.35.45.34.76-.38,1.14-1.57,1.75-2.37.08-.15.26-.41.22-.56-.25-.34-.87-.19-1.29-.44-2.03-.94-4.16-2.55-5.76-4.1-.52-.46-.87-1.11-.82-1.81.06-1.12.27-2.17.44-3.48.21-1.58.17-2.95,1.7-3.8.27-.16.83-.65,1.08-.86.94-1,2.11-.04,3.1.5,1.56.84,3.18,1.93,5.04,1.69.75-.08,1.37-.44,1.91-.95.19-.16.73-.57.77-.19-.33,1.46-.84,3.56-1.56,4.93-2.33,3.58-6.36-.57-8.95-1.68-.4-.23-.88-.36-1.01.25-.05.44-.43,1.2-.07,1.45.77,0,1.33.45,1.92.82,1.08.61,2.92,1.44,4.17,2.01,1.44.68,2.57,1.07,4.07,1.54.29.12.63.29.68.59-.08.75-.93,1.76-1.33,2.49-.95,1.47-1.91,3.05-2.75,4.39-1.04,1.88-2.87,4.32-5.32,2.93l-.13-.08Z"/></svg>